<svg width="28" height="29" viewBox="0 0 28 29" fill="none" xmlns="http://www.w3.org/2000/svg">
<path d="M24.6663 14L15.4997 23.1667L11.333 19" stroke="white" stroke-width="2" stroke-linecap="round" stroke-linejoin="round"/>
<g clip-path="url(#clip0_315_2332)">
<path d="M22.5 3.51562C22.5 1.57412 20.702 0 18.4821 0C16.2623 0 14.4643 1.57412 14.4643 3.51562C14.4643 4.95659 15.4572 6.19145 16.875 6.73462V8.4375C16.875 9.21357 16.1538 9.84375 15.2679 9.84375H7.23214C6.66562 9.84375 6.13025 9.94535 5.625 10.1029V6.73242C7.04129 6.19189 8.03571 4.95703 8.03571 3.51562C8.03571 1.57412 6.23772 0 4.01786 0C1.799 0 0 1.57412 0 3.51562C0 4.95659 0.992913 6.19145 2.41071 6.73462V15.7654C0.992913 16.3081 0 17.543 0 18.9844C0 20.9268 1.799 22.5 4.01786 22.5C6.23772 22.5 8.03571 20.9268 8.03571 18.9844C8.03571 17.5434 7.0428 16.3085 5.625 15.7654V14.0625C5.625 13.2864 6.34621 12.6562 7.23214 12.6562H15.2679C17.9267 12.6562 20.0893 10.764 20.0893 8.4375V6.73242C21.5056 6.19189 22.5 4.95703 22.5 3.51562ZM4.01786 2.46094C4.68231 2.46094 5.22321 2.93423 5.22321 3.51562C5.22321 4.09702 4.68231 4.57031 4.01786 4.57031C3.3534 4.57031 2.8125 4.09702 2.8125 3.51562C2.8125 2.93423 3.3534 2.46094 4.01786 2.46094ZM4.01786 20.0391C3.3534 20.0391 2.8125 19.5658 2.8125 18.9844C2.8125 18.403 3.3534 17.9297 4.01786 17.9297C4.68231 17.9297 5.22321 18.403 5.22321 18.9844C5.22321 19.5658 4.68231 20.0391 4.01786 20.0391ZM18.4821 2.46094C19.1466 2.46094 19.6875 2.93423 19.6875 3.51562C19.6875 4.09702 19.1466 4.57031 18.4821 4.57031C17.8177 4.57031 17.2768 4.09702 17.2768 3.51562C17.2768 2.93423 17.8192 2.46094 18.4821 2.46094Z" fill="white"/>
</g>
<defs>
<clipPath id="clip0_315_2332">
<rect width="22.5" height="22.5" fill="white"/>
</clipPath>
</defs>
</svg>
