<svg width="31" height="36" viewBox="0 0 31 36" fill="none" xmlns="http://www.w3.org/2000/svg">
<g clip-path="url(#clip0_317_2333)">
<path d="M22.5 3.51562C22.5 1.57412 20.702 0 18.4821 0C16.2623 0 14.4643 1.57412 14.4643 3.51562C14.4643 4.95659 15.4572 6.19145 16.875 6.73462V8.4375C16.875 9.21357 16.1538 9.84375 15.2679 9.84375H7.23214C6.66562 9.84375 6.13025 9.94535 5.625 10.1029V6.73242C7.04129 6.19189 8.03571 4.95703 8.03571 3.51562C8.03571 1.57412 6.23772 0 4.01786 0C1.799 0 0 1.57412 0 3.51562C0 4.95659 0.992913 6.19145 2.41071 6.73462V15.7654C0.992913 16.3081 0 17.543 0 18.9844C0 20.9268 1.799 22.5 4.01786 22.5C6.23772 22.5 8.03571 20.9268 8.03571 18.9844C8.03571 17.5434 7.0428 16.3085 5.625 15.7654V14.0625C5.625 13.2864 6.34621 12.6562 7.23214 12.6562H15.2679C17.9267 12.6562 20.0893 10.764 20.0893 8.4375V6.73242C21.5056 6.19189 22.5 4.95703 22.5 3.51562ZM4.01786 2.46094C4.68231 2.46094 5.22321 2.93423 5.22321 3.51562C5.22321 4.09702 4.68231 4.57031 4.01786 4.57031C3.3534 4.57031 2.8125 4.09702 2.8125 3.51562C2.8125 2.93423 3.3534 2.46094 4.01786 2.46094ZM4.01786 20.0391C3.3534 20.0391 2.8125 19.5658 2.8125 18.9844C2.8125 18.403 3.3534 17.9297 4.01786 17.9297C4.68231 17.9297 5.22321 18.403 5.22321 18.9844C5.22321 19.5658 4.68231 20.0391 4.01786 20.0391ZM18.4821 2.46094C19.1466 2.46094 19.6875 2.93423 19.6875 3.51562C19.6875 4.09702 19.1466 4.57031 18.4821 4.57031C17.8177 4.57031 17.2768 4.09702 17.2768 3.51562C17.2768 2.93423 17.8192 2.46094 18.4821 2.46094Z" fill="white"/>
</g>
<g filter="url(#filter0_d_317_2333)">
<path d="M15.0003 26.1666L18.0003 23.1666L21.0003 26.1666L22.167 25L19.167 22L22.167 19L21.0003 17.8333L18.0003 20.8333L15.0003 17.8333L13.8337 19L16.8337 22L13.8337 25L15.0003 26.1666ZM18.0003 30.3333C16.8475 30.3333 15.7642 30.1145 14.7503 29.677C13.7364 29.2395 12.8545 28.6458 12.1045 27.8958C11.3545 27.1458 10.7607 26.2638 10.3232 25.25C9.88574 24.2361 9.66699 23.1527 9.66699 22C9.66699 20.8472 9.88574 19.7638 10.3232 18.75C10.7607 17.7361 11.3545 16.8541 12.1045 16.1041C12.8545 15.3541 13.7364 14.7604 14.7503 14.3229C15.7642 13.8854 16.8475 13.6666 18.0003 13.6666C19.1531 13.6666 20.2364 13.8854 21.2503 14.3229C22.2642 14.7604 23.1462 15.3541 23.8962 16.1041C24.6462 16.8541 25.2399 17.7361 25.6774 18.75C26.1149 19.7638 26.3337 20.8472 26.3337 22C26.3337 23.1527 26.1149 24.2361 25.6774 25.25C25.2399 26.2638 24.6462 27.1458 23.8962 27.8958C23.1462 28.6458 22.2642 29.2395 21.2503 29.677C20.2364 30.1145 19.1531 30.3333 18.0003 30.3333ZM18.0003 28.6666C19.8614 28.6666 21.4378 28.0208 22.7295 26.7291C24.0212 25.4375 24.667 23.8611 24.667 22C24.667 20.1388 24.0212 18.5625 22.7295 17.2708C21.4378 15.9791 19.8614 15.3333 18.0003 15.3333C16.1392 15.3333 14.5628 15.9791 13.2712 17.2708C11.9795 18.5625 11.3337 20.1388 11.3337 22C11.3337 23.8611 11.9795 25.4375 13.2712 26.7291C14.5628 28.0208 16.1392 28.6666 18.0003 28.6666Z" fill="white"/>
</g>
<defs>
<filter id="filter0_d_317_2333" x="5.66699" y="10.6666" width="24.667" height="24.6666" filterUnits="userSpaceOnUse" color-interpolation-filters="sRGB">
<feFlood flood-opacity="0" result="BackgroundImageFix"/>
<feColorMatrix in="SourceAlpha" type="matrix" values="0 0 0 0 0 0 0 0 0 0 0 0 0 0 0 0 0 0 127 0" result="hardAlpha"/>
<feOffset dy="1"/>
<feGaussianBlur stdDeviation="2"/>
<feComposite in2="hardAlpha" operator="out"/>
<feColorMatrix type="matrix" values="0 0 0 0 0 0 0 0 0 0 0 0 0 0 0 0 0 0 0.25 0"/>
<feBlend mode="normal" in2="BackgroundImageFix" result="effect1_dropShadow_317_2333"/>
<feBlend mode="normal" in="SourceGraphic" in2="effect1_dropShadow_317_2333" result="shape"/>
</filter>
<clipPath id="clip0_317_2333">
<rect width="22.5" height="22.5" fill="white"/>
</clipPath>
</defs>
</svg>
