<?xml version="1.0" encoding="UTF-8"?>
<svg id="Layer_1" data-name="Layer 1" xmlns="http://www.w3.org/2000/svg" xmlns:xlink="http://www.w3.org/1999/xlink" viewBox="0 0 1583.73 428.23">
  <defs>
    <style>
      .cls-1 {
        fill: #48c6be;
      }

      .cls-2 {
        fill: url(#linear-gradient);
      }
    </style>
    <linearGradient id="linear-gradient" x1="220.96" y1="154.47" x2="588.18" y2="154.47" gradientUnits="userSpaceOnUse">
      <stop offset=".29" stop-color="#48c6be"/>
      <stop offset=".91" stop-color="#1e7c91"/>
    </linearGradient>
  </defs>
  <path d="m355.17,374.2c-2.49.88-5.07.21-7.61.42-92.49,0-184.98,0-277.48.02-1.97,0-3.99-.38-5.92.37-6.44-1.7-2.93-5.68-1.56-8.47,8.92-18.25,18.15-36.35,27.17-54.55,13.52-27.27,27.15-54.48,40.36-81.9,14.38-29.84,27.44-60.33,43.11-89.55,9.34-17.42,17.63-35.35,26.27-53.12,5.18-10.66,9.54-21.72,14.82-32.33,1.6-3.19,3.24-6.6,6.63-8.26l5.87.63.03-.27c.54.36,1.06.79,1.62,1.29,5.41,4.85,9.06,11.01,11.85,17.58,5.25,12.33,11.56,24.19,16.18,36.8,8.61,20.19,15.74,40.97,24.5,61.1,1.23,2.89,2.78,5.66,3.76,8.66.49,1.5,1.68,3.01.23,4.62-5.3.58-7.67,4.81-9.73,8.71-7.01,13.19-13.36,26.74-20.46,39.88-7.06,13.04-13.67,26.34-21.5,38.96-3.27,5.28-2.48,7.36,2.8,9.25,11.41-.75,22.83-.19,34.24-.31,9.11-.1,18.22-.02,27.33-.02,3.16.2,6.36-.43,9.5.37,5.79.45,8.81,4.34,10.96,9.07,4.73,10.4,9.25,20.89,13.98,31.28,5.74,12.61,11.62,25.16,17.44,37.74,2.65,5.71,5.26,11.44,7.99,17.11,1.32,2.76,1.5,4.77-2.38,4.92Z"/>
  <path class="cls-1" d="m166.29,117.9c-.43-1.38-1.01-2.74-1.58-4.07-14.75-34.03-29.51-68.06-44.26-102.09C115.98,1.45,113.23.76,102.5.72c-10.47-.04-20.94-.08-31.41-.12-21.38-.08-42.75-.17-64.13-.25C4.25.34.81.85.11,3.47c-.37,1.39.25,2.82.86,4.13,35.64,76.58,71.28,153.17,107.96,229.26,18.67-35.33,37.07-70.79,55.2-106.39,1.36-2.67,2.75-5.46,2.81-8.46.03-1.4-.24-2.77-.65-4.11Z"/>
  <path class="cls-2" d="m586.04,2.96c-7.33-5.3-31.3-1.86-37.55-1.87-18.19-.03-36.38-.07-54.57-.1-5.6-.01-11.65.12-16.1,3.53-3.37,2.59-5.23,6.64-6.96,10.52-22.04,49.49-44.08,98.99-66.11,148.48-.87,1.96-2.05,4.17-4.16,4.56-2.72.5-4.78-2.31-6.11-4.73-19.02-34.74-38.04-69.49-57.06-104.23-2.54-4.64-5.41-9.59-10.24-11.74-3.07-1.36-6.53-1.4-9.89-1.42-32.11-.13-64.23.16-96.34.87,16.07,15.44,24.37,37.05,32.51,57.79,25.88,65.91,55.05,130.52,87.37,193.52,1.57,3.06,3.26,6.25,6.12,8.17,3.32,2.23,7.59,2.32,11.59,2.34,22.37.1,44.74.21,67.11.31,6.75.03,13.88-.04,19.69-3.48,6.46-3.83,9.98-11.05,13.14-17.86,42.95-92.49,85.91-184.99,128.86-277.48,1.55-3.33.83-5.62-1.31-7.17Zm-171.34,304.87s.09-.02.14-.04v.04s0,0,0,0h-.14Z"/>
  <g>
    <path d="m1388.54,362.51c15.5,0,24.84,9.69,24.84,22.9s-8.37,22.38-24.93,22.38h-14.36v19.2h-12.33v-64.48h26.78Zm.71,34.36c7.4,0,11.8-5.11,11.8-11.45s-4.58-11.98-12.24-11.98h-14.71v23.43h15.15Z"/>
    <path d="m1451.34,406.47v20.52h-12.24v-64.48h29.25c13.12,0,22.2,9.16,22.2,22.2,0,9.69-5.29,18.41-13.39,20.61l16.12,21.67h-14.71l-14.97-20.52h-12.25Zm0-10.75h14.09c10.39,0,12.86-5.64,12.86-11.1,0-6.25-3.79-11.19-12.86-11.19h-14.09v22.29Z"/>
    <path d="m1516.87,394.76c0-18.41,13.21-33.47,33.39-33.47s33.47,15.06,33.47,33.47-13.21,33.47-33.47,33.47-33.39-14.98-33.39-33.47Zm12.24,0c0,11.72,9.51,22.02,21.14,22.02s21.14-10.31,21.14-22.02-9.42-21.93-21.14-21.93-21.14,10.31-21.14,21.93Z"/>
  </g>
  <g>
    <path d="m694.82,185.04l-28.77,79.43-36.66-79.43h-1.78l-36.66,79.24-28.18-79.24h-29.37l53.22,144.48h2.56l39.42-84.17,39.02,83.97h2.76l53.81-144.28h-29.37Z"/>
    <path d="m801.26,182.28c-45.13,0-74.7,33.71-74.7,74.9s29.57,74.9,74.7,74.9,74.9-33.51,74.9-74.9-29.57-74.9-74.9-74.9Zm0,124.18c-26.02,0-47.3-23.07-47.3-49.28s21.28-49.08,47.3-49.08,47.3,23.06,47.3,49.08-21.08,49.28-47.3,49.28Z"/>
    <path d="m985.75,280.83c18.13-4.92,29.96-24.44,29.96-46.12,0-29.17-20.3-49.67-49.67-49.67h-65.44v144.28h27.4v-45.93h27.39l33.51,45.93h32.92l-36.07-48.49Zm-26.22-21.48h-31.53v-49.87h31.53c20.3,0,28.78,11.04,28.78,25.03,0,12.22-5.52,24.84-28.78,24.84Z"/>
    <path d="m1102.03,259.74l59.33-74.7h-33.9l-57.36,73.32v-73.32h-27.59v144.28h27.59v-65.64l60.51,65.64h36.47l-65.05-69.58Z"/>
    <path d="m1302.09,185.04h-122.79v24.44h75.09l-81.2,116.69v3.15h126.14v-24.44h-78.25l81.01-116.49v-3.35Z"/>
    <path d="m1323.18,185.04v24.43h29.43s76.61.01,76.61.01v-24.44h-106.04Zm27.4,119.84v-34.89h69.77v-24.44h-97.17v83.77h106.04v-24.44h-78.64Z"/>
    <path d="m1555.56,185.04v87.32l-94.8-87.32h-2.96v144.28h27.4v-85.74l95,85.74h2.96v-144.28h-27.6Z"/>
  </g>
</svg>